# AST/ASF file generated using VICON BodyLanguage
# -----------------------------------------------
:version 1.10
:name VICON
:units
  mass 1.0
  length 0.45
  angle deg
:documentation
   .ast/.asf automatically generated from VICON data using
   VICON BodyBuilder and BodyLanguage model FoxedUp or BRILLIANT.MOD
:root
   order TX TY TZ RX RY RZ
   axis XYZ
   position 0 0 0  
   orientation 0 0 0 
:bonedata
  begin
     id 1 
     name lhipjoint
     direction 0.690799 -0.707083 0.151096 
     length 2.54797 
     axis 0 0 0  XYZ
  end
  begin
     id 2 
     name lfemur
     direction 0.34202 -0.939693 0  
     length 7.21646  
     axis 0 0 20  XYZ
    dof rx ry rz
    limits (-160.0 20.0)
           (-70.0 70.0)
           (-60.0 70.0)
  end
  begin
     id 3 
     name ltibia
     direction 0.34202 -0.939693 0   
     length 8.16759   
     axis 0 0 20   XYZ
    dof rx
    limits (-10.0 170.0)
  end
  begin
     id 4 
     name lfoot
     direction 0.0487203 -0.133858 0.989802   
     length 1.93375   
     axis -90 7.62852e-016 20   XYZ
    dof rx rz
    limits (-45.0 90.0)
           (-70.0 20.0)
  end
  begin
     id 5 
     name ltoes
     direction 1.53453e-011 -4.21783e-011 1   
     length 0.979747   
     axis -90 7.62852e-016 20   XYZ
    dof rx
    limits (-90.0 20.0)
  end
  begin
     id 6 
     name rhipjoint
     direction -0.694693 -0.703425 0.150315   
     length 2.56122  
     axis 0 0 0  XYZ 
  end
  begin
     id 7 
     name rfemur
     direction -0.34202 -0.939693 0   
     length 7.36786   
     axis 0 0 -20   XYZ
    dof rx ry rz
    limits (-160.0 20.0)
           (-70.0 70.0)
           (-70.0 60.0)
  end
  begin
     id 8 
     name rtibia
     direction -0.34202 -0.939693 0   
     length 8.07288   
     axis 0 0 -20   XYZ
    dof rx
    limits (-10.0 170.0)
 end
 begin
     id 9 
     name rfoot
     direction -0.0428397 -0.117701 0.992125   
     length 1.88295  
     axis -90 -7.62852e-016 -20   XYZ
    dof rx rz
    limits (-45.0 90.0)
           (-20.0 70.0)
  end
  begin
     id 10 
     name rtoes
     direction -1.53456e-011 -4.2187e-011 1   
     length 0.955578   
     axis -90 -7.62852e-016 -20   XYZ
    dof rx
    limits (-90.0 20.0)
  end
  begin
     id 11 
     name lowerback
     direction 0.0288145 0.999398 -0.0193241   
     length 1.92149   
     axis 0 0 0   XYZ
    dof rx ry rz
    limits (-20.0 45.0)
           (-30.0 30.0)
           (-30.0 30.0)
  end
  begin
     id 12 
     name upperback
     direction 0.0233784 0.998099 0.0570278   
     length 1.90435   
     axis 0 0 0   XYZ
    dof rx ry rz
    limits (-20.0 45.0)
           (-30.0 30.0)
           (-30.0 30.0)
  end
  begin
     id 13 
     name thorax
     direction 0.0096694 0.997833 0.0650817   
     length 1.9111   
     axis 0 0 0   XYZ
    dof rx ry rz
    limits (-20.0 45.0)
           (-30.0 30.0)
           (-30.0 30.0)
  end
  begin
     id 14 
     name lowerneck
     direction 0.00516803 0.999916 0.0118722   
     length 1.74664   
     axis 0 0 0   XYZ
    dof rx ry rz
    limits (-20.0 45.0)
           (-30.0 30.0)
           (-30.0 30.0)
  end
  begin
     id 15 
     name upperneck
     direction -0.0510851 0.996117 -0.071696   
     length 1.68498   
     axis 0 0 0   XYZ
    dof rx ry rz
    limits (-20.0 45.0)
           (-30.0 30.0)
           (-30.0 30.0)
  end
  begin
     id 16
     name head
     direction -0.019188 0.999436 -0.0275702  
     length 1.83483  
     axis 0 0 0   XYZ
    dof rx ry rz
    limits (-20.0 45.0)
           (-30.0 30.0)
           (-30.0 30.0)
  end
  begin
     id 17 
     name lclavicle
     direction 0.967006 0.248456 -0.0562957  
     length 3.39395  
     axis 0 0 0   XYZ
    dof ry rz
    limits (-20.0 10.0)
           (0.0 20.0)
  end
  begin
     id 18 
     name lhumerus
     direction 1 -4.48962e-011 -5.62711e-019   
     length 5.24318   
     axis 180 -30 -90   XYZ
    dof rx ry rz
    limits (-60.0 90.0)
           (-90.0 90.0)
           (-90.0 90.0)
  end
  begin
     id 19
     name lradius
     direction 1 -4.48966e-011 7.90625e-027   
     length 2.98999   
     axis 180 -30 -90   XYZ
    dof rx
    limits (-10.0 170.0)
  end
  begin
     id 20
     name lwrist
     direction 1 -4.48959e-011 1.61068e-026   
     length 1.49499   
     axis -9.31229e-015 90 90   XYZ
    dof ry
    limits (-180.0 0.0)
 end
  begin
     id 21 
     name lhand
     direction 1 -4.49017e-011 3.22136e-026   
     length 0.726745   
     axis -2.0555e-014 90 90   XYZ
    dof rx rz
    limits (-90.0 90.0)
           (-45.0 45.0)
  end
  begin
     id 22 
     name lfingers
     direction 1 -4.4898e-011 6.44272e-026   
     length 0.58592   
     axis -4.11101e-014 90 90   XYZ
    dof rx
    limits (0.0 90.0)
  end
  begin
     id 23
     name lthumb
     direction 0.707107 -6.34922e-011 0.707107   
     length 0.841268   
     axis -90 45 2.85299e-015   XYZ
    dof rx rz
    limits (-45.0 45.0)
           (-45.0 45.0)
  end
  begin
     id 24 
     name rclavicle
     direction -0.972232 0.230238 0.0419005   
     length 3.40416  
     axis 0 0 0   XYZ 
    dof ry rz
    limits (-10.0 20.0)
           (-20.0 0.0)
  end
  begin
     id 25 
     name rhumerus
     direction -1 -4.48976e-011 2.48487e-027  
     length 5.37045   
     axis 180 30 90   XYZ
    dof rx ry rz
    limits (-90.0 60.0)
           (-90.0 90.0)
           (-90.0 90.0)
  end
  begin
     id 26 
     name rradius
     direction -1 -4.48942e-011 7.87951e-027   
     length 2.92792   
     axis 180 30 90   XYZ
    dof rx
    limits (-10.0 170.0)
  end
  begin
     id 27 
     name rwrist
     direction -1 -4.48969e-011 1.61068e-026   
     length 1.46396   
     axis -9.31229e-015 -90 -90   XYZ
    dof ry
    limits (-180.0 0.0)
  end
  begin
     id 28
     name rhand
     direction -1 -4.49043e-011 3.22136e-026   
     length 0.784497   
     axis -2.0555e-014 -90 -90   XYZ
    dof rx rz
    limits (-90.0 90.0)
           (-45.0 45.0)
  end
  begin
     id 29
     name rfingers
     direction -1 -4.48823e-011 6.44272e-026   
     length 0.632482   
     axis -4.11101e-014 -90 -90   XYZ
    dof rx
    limits (0.0 90.0)
  end
  begin
     id 30
     name rthumb
     direction -0.707107 -6.34923e-011 0.707107   
     length 0.908121   
     axis -90 -45 -2.85299e-015   XYZ
    dof rx rz
    limits (-45.0 45.0)
           (-45.0 45.0)
  end
:hierarchy
  begin
    root lhipjoint rhipjoint lowerback
    lhipjoint lfemur
    lfemur ltibia
    ltibia lfoot
    lfoot ltoes
    rhipjoint rfemur
    rfemur rtibia
    rtibia rfoot
    rfoot rtoes
    lowerback upperback
    upperback thorax
    thorax lowerneck lclavicle rclavicle
    lowerneck upperneck
    upperneck head
    lclavicle lhumerus
    lhumerus lradius
    lradius lwrist
    lwrist lhand lthumb
    lhand lfingers
    rclavicle rhumerus
    rhumerus rradius
    rradius rwrist
    rwrist rhand rthumb
    rhand rfingers
  end

#!OML:ASF E:\Style6\Style6.ASF
:FULLY-SPECIFIED
:DEGREES
660
root 0.166286 15.8896 0.60079 13.9231 -1.40135 -5.34611
lowerback 5.95141 -1.97883 0.701371
upperback -3.54044 -2.39459 3.08745
thorax -6.94271 -1.13331 3.12777
lowerneck -11.0363 -0.155532 3.39056
upperneck 13.7415 0.131002 -6.0748
head 5.97603 -0.23279 -2.47445
rclavicle 2.61775e-014 -5.2181e-015
rhumerus -42.9463 22.2229 -45.8906
rradius 47.1695
rwrist -0.39802
rhand 13.396 12.1025
rfingers 7.12502
rthumb 38.3398 -13.6035
lclavicle 2.61775e-014 -5.2181e-015
lhumerus -105.203 -54.8424 136.353
lradius 94.7649
lwrist 12.8492
lhand -2.40188 2.01768
lfingers 7.12502
lthumb 23.2879 30.6293
rfemur -46.2363 -11.4436 27.1967
rtibia 63.7596
rfoot -21.4567 13.9015
rtoes 8.48451
lfemur -45.9827 11.8161 -12.6705
ltibia 67.8421
lfoot -29.1579 -0.788484
ltoes -27.3702
661
root 0.16401 15.891 0.603612 13.9382 -1.42507 -5.353
lowerback 5.88389 -1.99243 0.684546
upperback -3.52027 -2.41947 3.04142
thorax -6.88213 -1.14679 3.08751
lowerneck -11.046 -0.168708 3.42027
upperneck 13.7338 0.108283 -6.08079
head 5.97407 -0.242812 -2.48312
rclavicle -8.28684e-015 -7.85199e-015
rhumerus -42.4995 21.5062 -44.6729
rradius 46.5923
rwrist 0.814973
rhand 13.4955 12.2768
rfingers 7.12502
rthumb 38.4337 -13.4031
lclavicle -8.28684e-015 -7.85199e-015
lhumerus -105.138 -54.8456 136.219
lradius 94.7665
lwrist 12.9263
lhand -2.43063 2.00031
lfingers 7.12502
lthumb 23.2603 30.6154
rfemur -46.2256 -11.4229 27.2163
rtibia 63.7207
rfoot -21.4882 13.8483
rtoes 8.20908
lfemur -45.9782 11.8218 -12.655
ltibia 67.8385
lfoot -29.1324 -0.790993
ltoes -27.3101
662
root 0.162495 15.8923 0.608279 13.9534 -1.45984 -5.44199
lowerback 5.84942 -2.00509 0.752757
upperback -3.51899 -2.43238 3.0239
thorax -6.86385 -1.15704 3.03055
lowerneck -11.2019 -0.169291 3.3504
upperneck 13.871 0.109895 -6.0029
head 6.04435 -0.243011 -2.44943
rclavicle 4.06639e-014 -1.23246e-014
rhumerus -42.034 20.845 -43.442
rradius 45.923
rwrist 2.11005
rhand 13.1629 12.6461
rfingers 7.12502
rthumb 38.1197 -13.1205
lclavicle 4.06639e-014 -1.23246e-014
lhumerus -105.017 -54.7692 136.065
lradius 94.7564
lwrist 12.9616
lhand -2.44008 2.01724
lfingers 7.12502
lthumb 23.2512 30.6335
rfemur -46.1913 -11.3695 27.3097
rtibia 63.6801
rfoot -21.5059 13.8133
rtoes 8.08233
lfemur -45.9673 11.8949 -12.5622
ltibia 67.8477
lfoot -29.1772 -0.685826
ltoes -27.6105
663
root 0.161015 15.8922 0.612658 13.9806 -1.4761 -5.53932
lowerback 5.78093 -2.01595 0.821546
upperback -3.50064 -2.4438 3.01289
thorax -6.80762 -1.16688 2.97763
lowerneck -11.3966 -0.177125 3.25052
upperneck 14.0336 0.102197 -5.89252
head 6.12908 -0.247419 -2.40172
rclavicle 3.87879e-014 -1.14301e-014
rhumerus -41.5507 20.1786 -42.1506
rradius 45.3458
rwrist 3.21004
rhand 13.1584 12.7491
rfingers 7.12502
rthumb 38.1154 -13.0186
lclavicle 3.87879e-014 -1.14301e-014
lhumerus -104.993 -54.7688 135.98
lradius 94.7993
lwrist 12.9392
lhand -2.47084 2.09201
lfingers 7.12502
lthumb 23.2217 30.712
rfemur -46.1782 -11.3318 27.419
rtibia 63.655
rfoot -21.4675 13.9168
rtoes 8.71509
lfemur -45.9833 11.9675 -12.4599
ltibia 67.8732
lfoot -29.2187 -0.711121
ltoes -27.5616
664
root 0.158213 15.8905 0.613047 13.9978 -1.46197 -5.58673
lowerback 5.77039 -2.04188 0.79697
upperback -3.50479 -2.48045 3.02203
thorax -6.80295 -1.18368 3.00483
lowerneck -11.3929 -0.186219 3.16607
upperneck 14.0469 0.0982342 -5.84636
head 6.1326 -0.250284 -2.37344
rclavicle -1.34925e-014 -3.37934e-015
rhumerus -41.0564 19.5424 -40.7755
rradius 44.821
rwrist 4.08112
rhand 13.2703 12.738
rfingers 7.12502
rthumb 38.2211 -13.0007
lclavicle -1.34925e-014 -3.37934e-015
lhumerus -104.941 -54.7109 135.903
lradius 94.7732
lwrist 12.8613
lhand -2.37603 2.03718
lfingers 7.12502
lthumb 23.3127 30.6457
rfemur -46.1906 -11.3053 27.4819
rtibia 63.6491
rfoot -21.4373 13.9715
rtoes 9.265
lfemur -46.0134 11.9672 -12.3862
ltibia 67.8896
lfoot -29.1971 -0.900313
ltoes -27.0225
665
root 0.155559 15.8881 0.613031 14.0172 -1.49724 -5.53038
lowerback 5.77913 -2.04757 0.692038
upperback -3.54522 -2.49979 2.96449
thorax -6.84795 -1.18919 3.00743
lowerneck -11.2593 -0.203186 3.14412
upperneck 13.9765 0.0715957 -5.80037
head 6.08608 -0.258344 -2.35548
rclavicle 1.40889e-014 -7.35503e-015
rhumerus -40.6403 18.7629 -39.391
rradius 44.3339
rwrist 4.78303
rhand 13.4729 12.6273
rfingers 7.12502
rthumb 38.4123 -13.0586
lclavicle 1.40889e-014 -7.35503e-015
lhumerus -105.089 -54.6666 135.959
lradius 94.7932
lwrist 12.9251
lhand -2.24276 2.05614
lfingers 7.12502
lthumb 23.4405 30.6483
rfemur -46.2332 -11.3009 27.4338
rtibia 63.6653
rfoot -21.4042 14.0389
rtoes 9.49629
lfemur -46.0251 11.9583 -12.4415
ltibia 67.8912
lfoot -29.2016 -0.91867
ltoes -26.8091
666
root 0.153289 15.8887 0.617567 14.0226 -1.56545 -5.50766
lowerback 5.77864 -2.03245 0.594141
upperback -3.59706 -2.48902 2.93322
thorax -6.90036 -1.17935 3.03029
lowerneck -11.1396 -0.22818 3.12757
upperneck 13.9552 0.0406029 -5.7922
head 6.05724 -0.271823 -2.35158
rclavicle 1.31446e-014 1.42131e-014
rhumerus -40.1706 18.01 -37.9151
rradius 43.852
rwrist 5.27389
rhand 13.9334 12.3299
rfingers 7.12502
rthumb 38.8467 -13.2338
lclavicle 1.31446e-014 1.42131e-014
lhumerus -105.283 -54.6144 136.111
lradius 94.8013
lwrist 12.977
lhand -2.29707 2.02131
lfingers 7.12502
lthumb 23.3884 30.6202
rfemur -46.2185 -11.2614 27.402
rtibia 63.6653
rfoot -21.4366 14.0652
rtoes 9.33336
lfemur -45.9731 11.9863 -12.4639
ltibia 67.8677
lfoot -29.2479 -0.710056
ltoes -27.4289
667
root 0.150602 15.8909 0.621701 14.011 -1.59561 -5.52964
lowerback 5.83276 -2.03371 0.544711
upperback -3.62831 -2.49378 2.92486
thorax -6.96295 -1.17869 3.05371
lowerneck -11.2446 -0.24141 3.15371
upperneck 14.0968 0.0284105 -5.83686
head 6.11931 -0.282462 -2.3738
rclavicle -1.52319e-014 -2.72335e-014
rhumerus -39.6198 17.2454 -36.3715
rradius 43.4729
rwrist 5.56778
rhand 14.7621 11.8034
rfingers 7.12502
rthumb 39.6277 -13.5339
lclavicle -1.52319e-014 -2.72335e-014
lhumerus -105.442 -54.5834 136.244
lradius 94.8033
lwrist 12.9737
lhand -2.44384 1.94399
lfingers 7.12502
lthumb 23.2476 30.5607
rfemur -46.1749 -11.2579 27.4278
rtibia 63.6531
rfoot -21.4742 14.0486
rtoes 9.05761
lfemur -45.9111 12.0001 -12.4266
ltibia 67.8341
lfoot -29.2548 -0.656274
ltoes -27.6082
668
root 0.148195 15.8944 0.623647 14.0589 -1.57614 -5.53446
lowerback 5.8206 -2.05688 0.504803
upperback -3.6608 -2.52864 2.91635
thorax -6.98755 -1.19383 3.07186
lowerneck -11.4232 -0.22684 3.17622
upperneck 14.2762 0.053956 -5.87584
head 6.20806 -0.27592 -2.39155
rclavicle -3.82164e-014 3.73715e-014
rhumerus -39.0476 16.3758 -34.7714
rradius 43.1522
rwrist 6.00693
rhand 15.5437 11.2837
rfingers 7.12502
rthumb 40.3632 -13.8318
lclavicle -3.82164e-014 3.73715e-014
lhumerus -105.557 -54.5427 136.316
lradius 94.8257
lwrist 12.9465
lhand -2.43302 1.90155
lfingers 7.12502
lthumb 23.258 30.5169
rfemur -46.1985 -11.2832 27.452
rtibia 63.6353
rfoot -21.4232 14.0795
rtoes 9.26053
lfemur -45.9374 11.9825 -12.4163
ltibia 67.8013
lfoot -29.2373 -0.62584
ltoes -27.8204
